<svg xmlns="http://www.w3.org/2000/svg" width="35.344" height="47.17"><g fill="#729343" data-fill-palette-color="accent" style="display:inline"><path d="M938.367 127.157a3.645 3.645 0 0 1-2.195-.733l-29.306-21.98a3.664 3.664 0 0 1 4.396-5.861l29.306 21.98a3.664 3.664 0 0 1-2.2 6.594zm21.98 29.307c-.737 0-1.48-.222-2.126-.683l-51.287-36.633a3.664 3.664 0 0 1 4.259-5.962l51.286 36.633a3.664 3.664 0 0 1-2.132 6.645z" data-fill-palette-color="accent" style="display:inline" transform="translate(-265.22) scale(.30147)"/><path d="M292.696 4.011c.459-.52.33-1.33-.268-1.682A16.848 16.848 0 0 0 283.876 0c-4.189 0-8.146 1.535-11.144 4.322-3.07 2.853-4.76 6.696-4.76 10.82.001 7.34 2.21 7.286 2.21 0 0-7.13 6.143-12.933 13.694-12.933 2.184 0 4.34.487 6.31 1.428" data-fill-palette-color="accent" style="display:inline;fill:#729343;fill-opacity:1;stroke-width:.11044" transform="translate(-264.657)"/><path d="M316 469.553H136c-5.523 0-10-4.478-10-10V335.148c0-5.522 4.477-10 10-10s10 4.478 10 10v114.404h160v-100c0-5.522 4.478-10 10-10h50v-15.596c0-5.522 4.478-10 10-10s10 4.478 10 10v25.596c0 5.522-4.478 10-10 10h-50v100c0 5.523-4.478 10.001-10 10.001zM192.137 78.763c-4.155-4.71-2.99-12.039 2.421-15.227C217.954 49.74 244.732 42.447 272 42.447c37.925 0 73.761 13.897 100.906 39.13C400.695 107.409 416 142.204 416 179.553v80c0 5.522-4.478 10-10 10h-20v4.404c0 5.522-4.478 10-10 10s-10-4.478-10-10v-14.404c0-5.523 4.478-10 10-10h20v-70c0-64.572-55.626-117.105-124-117.105a132.681 132.681 0 0 0-57.146 12.923m-68.856 130.54.002 79.237c0 5.523-4.477 10-10 10s-10-4.478-10-10V186.49c0-8.624 13.547-5.724 19.998 0" data-fill-palette-color="accent" style="display:inline" transform="translate(-10.6 -4.688) scale(.11044)"/><path d="M933.114 21.7c-17.02 5.479-17.166 5.333-17.166 5.333s-3.125 31.696-7.195 34.12c-4.07 2.426 20.855-7.969 22.974-16.88 2.118-8.913 3.871-9.205 1.387-22.573z" style="display:inline;fill:#fefbf6;fill-opacity:1" transform="translate(-262.387 .252) scale(.30147)"/><path d="M190.384 219.553a10.003 10.003 0 0 1-9.763-7.872 112.09 112.09 0 0 1-1.531-7.686 9.999 9.999 0 0 1 6.983-11.209c6.763-6.322 12.394-13.482 16.768-21.33 6.732-12.081 10.153-25.109 10.167-38.721v-.092c0-5.103-.502-10.234-1.493-15.253a10.002 10.002 0 0 1 3.593-9.769 101.022 101.022 0 0 1 19.383-12.077c11.55-5.495 24.076-8.857 37.227-9.996a10.005 10.005 0 0 1 10.586 7.63c2.038 8.492 3.071 17.134 3.071 25.685 0 4.483-.287 8.984-.853 13.377-2.151 16.729-8.185 32.068-17.931 45.591-9.969 13.834-22.952 24.571-38.586 31.911-11.182 5.25-23.305 8.512-36.035 9.696l-.344.037.103-.01a15.84 15.84 0 0 1-.552.055 9.208 9.208 0 0 1-.793.033zm41.792-99.68c.553 4.238.832 8.512.832 12.771v.113c-.018 17.053-4.29 33.349-12.697 48.436a105.662 105.662 0 0 1-9.237 13.865 84.817 84.817 0 0 0 8.433-3.417c12.52-5.878 22.903-14.458 30.861-25.501 7.779-10.794 12.597-23.058 14.32-36.451.457-3.551.688-7.192.688-10.825 0-4.043-.284-8.116-.849-12.182-7.508 1.394-14.691 3.711-21.444 6.923a81.354 81.354 0 0 0-10.907 6.268z" data-fill-palette-color="accent" style="display:inline" transform="translate(-10.6 -4.688) scale(.11044)"/><path d="M885.637 20.6c17.02 5.478 17.166 5.332 17.166 5.332s3.125 31.696 7.195 34.12c4.07 2.426-20.855-7.969-22.973-16.88-2.119-8.912-3.872-9.205-1.388-22.572z" style="display:inline;fill:#fefbf6;fill-opacity:1" transform="translate(-265.22) scale(.30147)"/><path d="M914.331 64.856c-.112 0-.225-.005-.338-.015-4.67-.433-9.118-1.628-13.22-3.554a36.805 36.805 0 0 1-8.794-5.78 36.24 36.24 0 0 1-5.341-5.91c-3.57-4.954-5.78-10.573-6.569-16.702a38.61 38.61 0 0 1-.312-4.902c0-3.132.378-6.297 1.125-9.408a3.666 3.666 0 0 1 3.878-2.795c4.818.417 9.406 1.65 13.637 3.662a37.178 37.178 0 0 1 5.6 3.307l.205.145c.214.15.428.302.636.46a3.663 3.663 0 0 1 1.372 3.687 28.96 28.96 0 0 0-.64 6.007c0 5.063 1.27 9.878 3.777 14.34 1.755 3.126 4.07 5.962 6.88 8.433a3.663 3.663 0 0 1 1.196 2.153 34.3 34.3 0 0 0 .47 2.356 3.664 3.664 0 0 1-3.562 4.516zm-26.937-41.324a32.532 32.532 0 0 0-.31 4.461c0 1.33.085 2.665.252 3.967.631 4.907 2.396 9.399 5.246 13.353a28.906 28.906 0 0 0 4.26 4.714 29.469 29.469 0 0 0 7.045 4.628c.68.319 1.37.613 2.073.882a38.482 38.482 0 0 1-3-4.55c-3.086-5.492-4.717-11.682-4.717-17.9v-.038c.002-1.7.126-3.405.368-5.096a29.36 29.36 0 0 0-3.361-1.885 31.747 31.747 0 0 0-7.856-2.536z" data-fill-palette-color="accent" style="display:inline;stroke-width:.366334" transform="translate(-265.22) scale(.30147)"/><path d="M164.143 73.92c-50.767 0-51.695 113.017-.105 113.017 53.588 0 51.966-113.017.105-113.017z" style="display:inline;fill:#fefbf6;fill-opacity:1;stroke-width:2.72975" transform="translate(-7.767 -4.436) scale(.11044)"/><path d="M164.014 210.716a9.98 9.98 0 0 1-6.544-2.438 26.47 26.47 0 0 1-.584-.522l-.186-.168c-9.365-8.231-17.108-17.734-23.009-28.24-8.423-14.991-12.875-31.888-12.875-48.863v-.101a99.032 99.032 0 0 1 2.192-20.557 100.912 100.912 0 0 1 10.251-27.418c6.167-11.2 14.372-21.243 24.39-29.848a10.001 10.001 0 0 1 13.048.013 111.996 111.996 0 0 1 10.797 10.683c5.386 6.108 10.031 12.747 13.81 19.735 4.82 8.922 8.248 18.424 10.187 28.246a99.004 99.004 0 0 1 1.872 19.125v.103c-.018 17.063-4.29 33.36-12.697 48.447-6.143 11.02-14.262 20.907-24.134 29.388a9.985 9.985 0 0 1-6.518 2.415zm.13-136.796c-5.283 5.515-9.76 11.588-13.365 18.136a80.846 80.846 0 0 0-6.627 15.796 79.71 79.71 0 0 0-1.586 6.157 79.053 79.053 0 0 0-1.75 16.398c0 13.82 3.47 26.965 10.312 39.144 3.508 6.246 7.834 12.069 12.91 17.386 5.178-5.408 9.586-11.356 13.156-17.762 6.732-12.081 10.153-25.11 10.167-38.721v-.092a78.93 78.93 0 0 0-1.493-15.252c-1.55-7.85-4.295-15.456-8.16-22.61-3.058-5.654-6.832-11.043-11.216-16.016a91.518 91.518 0 0 0-2.349-2.564z" data-fill-palette-color="accent" style="display:inline" transform="translate(-7.767 -4.436) scale(.11044)"/></g></svg>