<svg xmlns="http://www.w3.org/2000/svg" version="1.1" xmlnsXlink="http://www.w3.org/1999/xlink" xmlnsSvgjs="http://svgjs.dev/svgjs" width="1000" height="156" viewBox="0 0 1000 156"><g transform="matrix(1,0,0,1,-0.6060592035419745,0.23180950959013558)"><svg viewBox="0 0 396 62" data-background-color="#ffffff" preserveAspectRatio="xMidYMid meet" height="156" width="1000" xmlns="http://www.w3.org/2000/svg" xmlnsXlink="http://www.w3.org/1999/xlink"><defs></defs><g id="tight-bounds" transform="matrix(1,0,0,1,0.23999944460263123,-0.09212942047813044)"><svg viewBox="0 0 395.52 62.18425785457045" height="62.18425785457045" width="395.52"><g><svg viewBox="0 0 462.4079980996578 72.70049096845885" height="62.18425785457045" width="395.52"><g transform="matrix(1,0,0,1,0,10.047607651936069)"><svg viewBox="0 0 395.52 52.60527566458671" height="52.60527566458671" width="395.52"><g><svg viewBox="0 0 395.52 52.60527566458671" height="52.60527566458671" width="395.52"><g><svg viewBox="0 0 395.52 52.60527566458671" height="52.60527566458671" width="395.52"><g transform="matrix(1,0,0,1,0,0)"><svg width="395.52" viewBox="1.2699999809265137 -37.5 285.5899963378906 37.9900016784668" height="52.60527566458671" data-palette-color="#729343"><path d="M28.61-35.55L28.61-32.98 16.43-32.98 16.43 0 13.43 0 13.43-32.98 1.27-32.98 1.27-35.55 28.61-35.55ZM36.57-37.5L36.57-21.95Q38.01-24.32 40.26-25.61 42.5-26.9 45.16-26.9L45.16-26.9Q49.41-26.9 51.49-24.51 53.56-22.12 53.59-17.33L53.59-17.33 53.59 0 50.68 0 50.68-17.36Q50.66-20.9 49.18-22.63 47.7-24.37 44.46-24.37L44.46-24.37Q41.75-24.37 39.66-22.67 37.57-20.97 36.57-18.09L36.57-18.09 36.57 0 33.66 0 33.66-37.5 36.57-37.5ZM71.33 0.49L71.33 0.49Q67.96 0.49 65.24-1.17 62.52-2.83 61.01-5.8 59.49-8.76 59.49-12.45L59.49-12.45 59.49-13.5Q59.49-17.31 60.97-20.36 62.45-23.41 65.08-25.16 67.72-26.9 70.8-26.9L70.8-26.9Q75.61-26.9 78.43-23.62 81.25-20.34 81.25-14.65L81.25-14.65 81.25-13.01 62.4-13.01 62.4-12.45Q62.4-7.96 64.97-4.97 67.55-1.98 71.45-1.98L71.45-1.98Q73.8-1.98 75.59-2.83 77.39-3.69 78.85-5.57L78.85-5.57 80.68-4.17Q77.46 0.49 71.33 0.49ZM70.8-24.41L70.8-24.41Q67.5-24.41 65.24-22 62.98-19.58 62.5-15.5L62.5-15.5 78.34-15.5 78.34-15.82Q78.22-19.63 76.17-22.02 74.12-24.41 70.8-24.41ZM99.21-26.59L99.14-23.93Q98.21-24.1 97.16-24.1L97.16-24.1Q94.43-24.1 92.53-22.57 90.64-21.04 89.84-18.14L89.84-18.14 89.84 0 86.93 0 86.93-26.42 89.79-26.42 89.84-22.22Q92.16-26.9 97.28-26.9L97.28-26.9Q98.5-26.9 99.21-26.59L99.21-26.59ZM122.57 0L119.45 0Q119.01-1.25 118.89-3.69L118.89-3.69Q117.35-1.68 114.97-0.6 112.59 0.49 109.93 0.49L109.93 0.49Q106.12 0.49 103.76-1.64 101.41-3.76 101.41-7.01L101.41-7.01Q101.41-10.86 104.62-13.11 107.83-15.36 113.56-15.36L113.56-15.36 118.86-15.36 118.86-18.36Q118.86-21.19 117.12-22.81 115.37-24.44 112.03-24.44L112.03-24.44Q108.97-24.44 106.97-22.88 104.97-21.31 104.97-19.12L104.97-19.12 102.04-19.14Q102.04-22.29 104.97-24.6 107.9-26.9 112.17-26.9L112.17-26.9Q116.59-26.9 119.14-24.69 121.69-22.49 121.77-18.53L121.77-18.53 121.77-6.03Q121.77-2.2 122.57-0.29L122.57-0.29 122.57 0ZM110.27-2.1L110.27-2.1Q113.2-2.1 115.51-3.52 117.81-4.93 118.86-7.3L118.86-7.3 118.86-13.11 113.64-13.11Q109.27-13.06 106.8-11.51 104.34-9.96 104.34-7.25L104.34-7.25Q104.34-5.03 105.98-3.56 107.63-2.1 110.27-2.1ZM145.93-10.4L145.93-35.55 148.96-35.55 148.96-10.57Q148.96-5.52 146.04-2.51 143.13 0.49 138.22 0.49L138.22 0.49Q133.04 0.49 130.26-2.22 127.48-4.93 127.48-9.79L127.48-9.79 130.48-9.79Q130.48-5.93 132.51-3.99 134.53-2.05 138.22-2.05L138.22-2.05Q141.61-2.05 143.75-4.3 145.89-6.54 145.93-10.4L145.93-10.4ZM155.45-13.01L155.45-13.6Q155.45-17.41 156.93-20.46 158.41-23.51 161.11-25.21 163.8-26.9 167.22-26.9L167.22-26.9Q172.49-26.9 175.77-23.21 179.04-19.51 179.04-13.4L179.04-13.4 179.04-12.79Q179.04-8.96 177.56-5.9 176.08-2.83 173.4-1.17 170.71 0.49 167.27 0.49L167.27 0.49Q162.02 0.49 158.74-3.21 155.45-6.91 155.45-13.01L155.45-13.01ZM158.38-13.33L158.38-12.79Q158.38-8.06 160.84-5.02 163.29-1.98 167.27-1.98L167.27-1.98Q171.23-1.98 173.68-5.02 176.13-8.06 176.13-13.04L176.13-13.04 176.13-13.6Q176.13-16.63 175.01-19.14 173.89-21.66 171.86-23.03 169.83-24.41 167.22-24.41L167.22-24.41Q163.32-24.41 160.85-21.35 158.38-18.29 158.38-13.33L158.38-13.33ZM202.11 0L202.06-3.34Q199.42 0.49 193.63 0.49L193.63 0.49Q189.41 0.49 187.21-1.97 185.02-4.42 184.97-9.23L184.97-9.23 184.97-26.42 187.87-26.42 187.87-9.59Q187.87-2.05 193.98-2.05L193.98-2.05Q200.32-2.05 202.01-7.3L202.01-7.3 202.01-26.42 204.94-26.42 204.94 0 202.11 0ZM224.81-26.59L224.74-23.93Q223.81-24.1 222.76-24.1L222.76-24.1Q220.02-24.1 218.13-22.57 216.24-21.04 215.43-18.14L215.43-18.14 215.43 0 212.53 0 212.53-26.42 215.39-26.42 215.43-22.22Q217.75-26.9 222.88-26.9L222.88-26.9Q224.1-26.9 224.81-26.59L224.81-26.59ZM229.35-26.42L232.13-26.42 232.23-21.9Q233.72-24.34 235.94-25.62 238.16-26.9 240.85-26.9L240.85-26.9Q245.09-26.9 247.17-24.51 249.25-22.12 249.27-17.33L249.27-17.33 249.27 0 246.36 0 246.36-17.36Q246.34-20.9 244.86-22.63 243.39-24.37 240.14-24.37L240.14-24.37Q237.43-24.37 235.34-22.67 233.25-20.97 232.25-18.09L232.25-18.09 232.25 0 229.35 0 229.35-26.42ZM276.61 0L273.49 0Q273.05-1.25 272.92-3.69L272.92-3.69Q271.39-1.68 269.01-0.6 266.63 0.49 263.96 0.49L263.96 0.49Q260.16 0.49 257.8-1.64 255.44-3.76 255.44-7.01L255.44-7.01Q255.44-10.86 258.65-13.11 261.86-15.36 267.6-15.36L267.6-15.36 272.9-15.36 272.9-18.36Q272.9-21.19 271.15-22.81 269.41-24.44 266.06-24.44L266.06-24.44Q263.01-24.44 261.01-22.88 259.01-21.31 259.01-19.12L259.01-19.12 256.08-19.14Q256.08-22.29 259.01-24.6 261.94-26.9 266.21-26.9L266.21-26.9Q270.63-26.9 273.18-24.69 275.73-22.49 275.81-18.53L275.81-18.53 275.81-6.03Q275.81-2.2 276.61-0.29L276.61-0.29 276.61 0ZM264.31-2.1L264.31-2.1Q267.24-2.1 269.54-3.52 271.85-4.93 272.9-7.3L272.9-7.3 272.9-13.11 267.68-13.11Q263.31-13.06 260.84-11.51 258.37-9.96 258.37-7.25L258.37-7.25Q258.37-5.03 260.02-3.56 261.67-2.1 264.31-2.1ZM286.86-37.5L286.86 0 283.93 0 283.93-37.5 286.86-37.5Z" opacity="1" transform="matrix(1,0,0,1,0,0)" fill="#729343" class="undefined-text-0" data-fill-palette-color="primary" id="text-0"></path></svg></g></svg></g></svg></g></svg></g><g transform="matrix(1,0,0,1,407.93884305779295,0)"><svg viewBox="0 0 54.46915504186485 72.70049096845885" height="72.70049096845885" width="54.46915504186485"><g><svg xmlns="http://www.w3.org/2000/svg" xmlns:xlink="http://www.w3.org/1999/xlink" version="1.1" x="0" y="0" viewBox="95.99999237060547 42.446998596191406 320 427.10699462890625" style="enable-background:new 0 0 512 512;" xml:space="preserve" height="72.70049096845885" width="54.46915504186485" class="icon-icon-0" data-fill-palette-color="accent" id="icon-0"><g fill="#729343" data-fill-palette-color="accent"><g fill="#729343" data-fill-palette-color="accent"><g fill="#729343" data-fill-palette-color="accent"><path d="M315.991 469.554c-2.012 0-4.042-0.605-5.804-1.863l-140-100c-4.494-3.21-5.535-9.456-2.325-13.95 3.21-4.495 9.456-5.533 13.95-2.325l140 100c4.494 3.21 5.535 9.456 2.325 13.95C322.186 468.098 319.111 469.554 315.991 469.554z" fill="#729343" data-fill-palette-color="accent"></path></g><g fill="#729343" data-fill-palette-color="accent"><path d="M255.992 389.554c-2.088 0-4.193-0.651-5.992-2.001l-80-60c-4.418-3.313-5.313-9.582-2-14 3.313-4.419 9.582-5.314 14-2l80 60c4.418 3.313 5.313 9.582 2 14C262.035 388.172 259.032 389.554 255.992 389.554z" fill="#729343" data-fill-palette-color="accent"></path></g><g fill="#729343" data-fill-palette-color="accent"><path d="M316 469.553H136c-5.523 0-10-4.478-10-10V335.148c0-5.522 4.477-10 10-10s10 4.478 10 10v114.404h160v-100c0-5.522 4.478-10 10-10h50v-15.596c0-5.522 4.478-10 10-10s10 4.478 10 10v25.596c0 5.522-4.478 10-10 10h-50v100C326 465.075 321.522 469.553 316 469.553zM136 295.148c-5.523 0-10-4.478-10-10v-98.662c0-3.937 2.309-7.506 5.899-9.121 3.59-1.612 7.793-0.971 10.738 1.641 5.724 5.079 12.195 9.33 19.233 12.634 8.914 4.186 18.607 6.819 28.817 7.831 10.21-1.012 19.903-3.645 28.818-7.831 12.52-5.878 22.903-14.458 30.861-25.501 7.779-10.794 12.597-23.058 14.32-36.451 0.457-3.551 0.688-7.192 0.688-10.825 0-4.043-0.284-8.116-0.849-12.182-7.508 1.394-14.691 3.711-21.444 6.923-5.541 2.636-10.77 5.894-15.54 9.681-2.732 2.169-6.396 2.757-9.67 1.553-3.273-1.204-5.683-4.027-6.358-7.449-1.55-7.849-4.295-15.456-8.161-22.609-3.057-5.655-6.831-11.044-11.215-16.017-1.973-2.237-2.844-5.238-2.375-8.184 0.468-2.946 2.227-5.528 4.796-7.043C217.954 49.74 244.732 42.447 272 42.447c37.925 0 73.761 13.897 100.906 39.13C400.695 107.409 416 142.204 416 179.553v80c0 5.522-4.478 10-10 10h-20v4.404c0 5.522-4.478 10-10 10s-10-4.478-10-10v-14.404c0-5.523 4.478-10 10-10h20v-70c0-64.572-55.626-117.105-124-117.105-19.844 0-39.385 4.442-57.146 12.923 2.226 3.205 4.263 6.512 6.095 9.901 2.463 4.558 4.563 9.268 6.286 14.094 2.364-1.37 4.786-2.645 7.257-3.82 11.55-5.495 24.076-8.857 37.227-9.996 4.931-0.421 9.432 2.818 10.586 7.63 2.038 8.493 3.071 17.134 3.071 25.685 0 4.483-0.287 8.984-0.853 13.377-2.151 16.729-8.185 32.068-17.931 45.591-9.969 13.834-22.952 24.571-38.586 31.911-10.854 5.096-22.597 8.319-34.919 9.586-0.775 0.167-1.582 0.244-2.399 0.218-0.823 0.03-1.627-0.051-2.401-0.218-12.323-1.268-24.063-4.49-34.917-9.586-2.515-1.181-4.974-2.46-7.37-3.833v79.237C146 290.671 141.523 295.148 136 295.148z" fill="#729343" data-fill-palette-color="accent"></path></g><g fill="#729343" data-fill-palette-color="accent"><path d="M158.434 124.198c-2.147 0-4.271-0.691-6.034-2.025-0.389-0.294-0.79-0.574-1.188-0.855l-0.655-0.464c-4.398-3.137-5.51-9.199-2.511-13.692 1.294-1.938 2.694-3.917 4.163-5.882 2.903-3.884 8.174-5.125 12.507-2.945 4.332 2.181 6.474 7.155 5.083 11.801-0.624 2.083-1.157 4.154-1.585 6.154-0.715 3.343-3.087 6.088-6.291 7.281C160.788 123.992 159.607 124.198 158.434 124.198z" fill="#729343" data-fill-palette-color="accent"></path></g><g fill="#729343" data-fill-palette-color="accent"><path d="M190.991 219.553c-0.262 0-0.525-0.01-0.791-0.031-0.173-0.014-0.344-0.031-0.515-0.051-5.092-0.512-8.983-4.792-8.998-9.922-0.014-5.153 3.89-9.47 9.012-9.979l0.357-0.039c3.254-0.311 6.441 0.99 8.556 3.474 2.017 2.37 2.81 5.535 2.166 8.562C199.818 216.233 195.704 219.553 190.991 219.553z" fill="#729343" data-fill-palette-color="accent"></path></g><g fill="#729343" data-fill-palette-color="accent"><path d="M190.379 219.487c-0.307 0-0.614-0.014-0.922-0.042-12.75-1.18-24.891-4.443-36.087-9.701-8.772-4.119-16.85-9.427-24.007-15.778-5.436-4.823-10.341-10.251-14.58-16.133-9.746-13.523-15.778-28.862-17.931-45.592-0.565-4.398-0.852-8.9-0.852-13.38 0-8.55 1.033-17.19 3.07-25.681 1.155-4.812 5.655-8.049 10.586-7.63 13.152 1.138 25.678 4.501 37.227 9.995 5.25 2.498 10.393 5.535 15.288 9.028l0.559 0.396c0.583 0.411 1.166 0.824 1.735 1.254 3.098 2.343 4.558 6.269 3.746 10.066-1.154 5.396-1.743 10.914-1.75 16.398 0 13.821 3.469 26.965 10.312 39.144 4.792 8.532 11.112 16.276 18.783 23.02 1.733 1.523 2.887 3.6 3.264 5.877 0.387 2.336 0.807 4.44 1.283 6.432 0.75 3.136-0.058 6.44-2.169 8.876C196.026 218.239 193.263 219.487 190.379 219.487zM116.848 106.682c-0.563 4.064-0.848 8.137-0.848 12.179 0 3.63 0.232 7.274 0.689 10.829 1.723 13.393 6.541 25.656 14.319 36.45 3.38 4.69 7.292 9.019 11.629 12.867 5.724 5.079 12.194 9.33 19.233 12.634 1.853 0.87 3.739 1.673 5.657 2.408-3.031-3.959-5.766-8.105-8.19-12.421-8.423-14.992-12.875-31.889-12.875-48.864 0-0.004 0-0.097 0-0.101 0.006-4.641 0.343-9.297 1.006-13.912-2.991-1.941-6.065-3.666-9.176-5.146C131.54 110.394 124.356 108.076 116.848 106.682z" fill="#729343" data-fill-palette-color="accent"></path></g><g fill="#729343" data-fill-palette-color="accent"><path d="M190.384 219.553c-4.675 0-8.761-3.265-9.763-7.872-0.574-2.414-1.075-4.93-1.531-7.686-0.691-4.172 1.317-8.327 5.015-10.378 0.634-0.351 1.294-0.628 1.968-0.831 6.763-6.322 12.394-13.482 16.768-21.33 6.732-12.081 10.153-25.109 10.167-38.721l0-0.092c0-5.103-0.502-10.234-1.493-15.253-0.725-3.672 0.662-7.441 3.593-9.769 5.955-4.727 12.476-8.791 19.383-12.077 11.55-5.495 24.076-8.857 37.227-9.996 4.931-0.421 9.432 2.818 10.586 7.63 2.038 8.492 3.071 17.134 3.071 25.685 0 4.483-0.287 8.984-0.853 13.377-2.151 16.729-8.185 32.068-17.931 45.591-9.969 13.834-22.952 24.571-38.586 31.911-11.182 5.25-23.305 8.512-36.035 9.696l-0.344 0.037 0.103-0.01c-0.194 0.022-0.373 0.041-0.552 0.055C190.911 219.543 190.646 219.553 190.384 219.553zM232.176 119.873c0.553 4.238 0.832 8.512 0.832 12.771 0.001 0.052 0 0.061 0 0.113-0.018 17.053-4.29 33.349-12.697 48.436-2.703 4.849-5.788 9.478-9.237 13.865 2.879-0.991 5.693-2.131 8.433-3.417 12.52-5.878 22.903-14.458 30.861-25.501 7.779-10.794 12.597-23.058 14.32-36.451 0.457-3.551 0.688-7.192 0.688-10.825 0-4.043-0.284-8.116-0.849-12.182-7.508 1.394-14.691 3.711-21.444 6.923C239.285 115.413 235.633 117.512 232.176 119.873z" fill="#729343" data-fill-palette-color="accent"></path></g><g fill="#729343" data-fill-palette-color="accent"><path d="M189.66 212.996c-2.333 0-4.666-0.813-6.544-2.438-0.198-0.171-0.392-0.346-0.584-0.522l-0.186-0.168c-9.365-8.231-17.108-17.734-23.009-28.239-8.423-14.992-12.875-31.889-12.875-48.864 0-0.004 0-0.097 0-0.101 0.008-6.88 0.746-13.796 2.192-20.557 0.539-2.521 1.207-5.115 1.983-7.709 2.04-6.818 4.822-13.451 8.268-19.709 6.167-11.2 14.372-21.243 24.389-29.848 3.754-3.225 9.302-3.219 13.049 0.013 3.817 3.293 7.449 6.887 10.797 10.683 5.386 6.108 10.031 12.747 13.809 19.735 4.821 8.922 8.249 18.424 10.188 28.246 1.242 6.293 1.872 12.728 1.872 19.125v0.103c-0.018 17.063-4.29 33.36-12.697 48.447-6.143 11.02-14.262 20.907-24.134 29.388C194.303 212.191 191.981 212.996 189.66 212.996zM189.789 76.2c-5.282 5.515-9.759 11.588-13.364 18.136-2.763 5.018-4.993 10.333-6.627 15.796-0.625 2.087-1.158 4.157-1.586 6.157-1.154 5.396-1.743 10.914-1.75 16.398 0 13.821 3.469 26.965 10.312 39.144 3.508 6.246 7.834 12.069 12.91 17.386 5.178-5.408 9.586-11.356 13.156-17.762 6.732-12.081 10.153-25.109 10.167-38.721v-0.092c0-5.101-0.502-10.232-1.493-15.252-1.55-7.85-4.295-15.456-8.161-22.609-3.057-5.655-6.831-11.044-11.215-16.017C191.373 77.896 190.589 77.041 189.789 76.2z" fill="#729343" data-fill-palette-color="accent"></path></g></g></g></svg></g></svg></g></svg></g></svg><rect width="395.52" height="62.18425785457045" fill="none" stroke="none" visibility="hidden"></rect></g></svg></g></svg>