<?xml version="1.0" encoding="UTF-8" standalone="no"?>
<svg
   version="1.1"
   xmlnsXlink="http://www.w3.org/1999/xlink"
   xmlnsSvgjs="http://svgjs.dev/svgjs"
   width="879.34521"
   height="156.54892"
   viewBox="0 0 879.34521 156.54892"
   id="svg77"
   sodipodi:docname="logov2.svg"
   xml:space="preserve"
   inkscape:version="1.2.1 (9c6d41e410, 2022-07-14)"
   xmlns:inkscape="http://www.inkscape.org/namespaces/inkscape"
   xmlns:sodipodi="http://sodipodi.sourceforge.net/DTD/sodipodi-0.dtd"
   xmlns="http://www.w3.org/2000/svg"
   xmlns:svg="http://www.w3.org/2000/svg"><g
     aria-label="TheraJournal"
     transform="matrix(0.92039599,0,0,0.92039599,-2.5034771,10.786625)"
     id="text355"
     style="font-size:136px;font-family:'DM Serif Display';-inkscape-font-specification:'DM Serif Display';white-space:pre;shape-inside:url(#rect357);display:inline;fill:#729343;stroke-width:2"><path
       d="m 21.216,119.76878 v -1.36 l 5.576,-1.36 q 5.576,-1.224 5.576,-6.8 V 32.728782 h -11.56 q -5.032,0 -7.208,2.72 -2.176,2.584 -4.624,7.208 l -4.896,9.52 H 2.72 l 0.68,-22.168 h 78.472 l 0.544,22.168 h -1.36 l -4.896,-9.52 q -2.312,-4.624 -4.488,-7.208 -2.176,-2.72 -7.208,-2.72 h -11.56 v 77.519998 q 0,5.576 5.576,6.8 l 5.576,1.36 v 1.36 z"
       id="path303" /><path
       d="m 88.40011,119.76878 v -1.36 l 1.632,-0.544 q 4.896,-1.632 4.896,-6.8 V 38.440782 q 0,-2.856 -0.952,-4.216 -0.952,-1.36 -3.672,-2.04 l -2.04,-0.544 v -1.36 l 23.936,-5.848 2.176,1.224 -0.544,19.176 v 17 q 4.76,-3.944 10.2,-6.664 5.576,-2.856 12.24,-2.856 8.84,0 14.008,5.032 5.304,5.032 5.304,15.504 v 38.351998 q 0,2.72 1.088,4.352 1.088,1.632 3.808,2.448 l 1.088,0.408 v 1.36 h -31.824 v -1.36 l 1.632,-0.408 q 4.896,-1.632 4.896,-6.936 V 68.360782 q 0,-5.44 -1.904,-7.48 -1.768,-2.04 -6.392,-2.04 -2.992,0 -6.528,1.224 -3.536,1.088 -7.208,3.944 v 47.327998 q 0,5.304 4.896,6.8 l 1.088,0.272 v 1.36 z"
       id="path305" /><path
       d="m 201.0081,52.312782 q 8.84,0 15.096,3.672 6.256,3.536 9.52,9.792 3.4,6.12 3.4,14.008 0,1.496 -0.136,3.128 -0.136,1.496 -0.544,2.72 h -40.528 q 0.136,14.687998 5.168,21.215998 5.168,6.392 15.232,6.392 6.8,0 11.016,-2.176 4.216,-2.176 7.888,-6.392 l 1.36,1.224 q -4.216,7.48 -11.288,11.696 -6.936,4.216 -16.728,4.216 -9.656,0 -17.136,-4.08 -7.48,-4.216 -11.696,-11.968 -4.216,-7.751998 -4.216,-18.495998 0,-11.152 4.896,-18.904 4.896,-7.888 12.512,-11.968 7.752,-4.08 16.184,-4.08 z m -0.408,2.72 q -3.944,0 -6.8,2.448 -2.72,2.312 -4.352,8.432 -1.496,5.984 -1.632,17 h 23.256 q 1.36,-14.824 -1.088,-21.352 -2.448,-6.528 -9.384,-6.528 z"
       id="path307" /><path
       d="m 235.8241,119.76878 v -1.36 l 2.04,-0.544 q 2.72,-0.816 3.672,-2.448 1.088,-1.632 1.088,-4.216 V 68.632782 q 0,-2.992 -1.088,-4.352 -0.952,-1.496 -3.672,-2.04 l -2.04,-0.544 v -1.36 l 23.392,-7.888 1.36,1.36 1.224,11.696 v 1.088 q 1.904,-3.808 4.896,-6.936 3.128,-3.264 6.8,-5.304 3.808,-2.04 7.48,-2.04 5.168,0 7.888,2.856 2.72,2.856 2.72,7.208 0,4.624 -2.72,7.208 -2.584,2.448 -6.256,2.448 -5.712,0 -10.064,-5.712 l -0.272,-0.272 q -1.36,-1.904 -3.128,-2.04 -1.768,-0.272 -3.264,1.632 -1.36,1.224 -2.312,2.992 -0.816,1.632 -1.632,3.808 v 37.943998 q 0,5.44 4.76,6.8 l 4.352,1.224 v 1.36 z"
       id="path309" /><path
       d="m 312.80012,121.80878 q -7.888,0 -13.328,-4.488 -5.304,-4.488 -5.304,-12.92 0,-6.391998 6.528,-11.695998 6.528,-5.44 20.536,-8.16 2.176,-0.408 4.896,-0.816 2.72,-0.544 5.712,-1.088 v -10.744 q 0,-9.248 -2.312,-12.92 -2.176,-3.808 -6.936,-3.808 -3.264,0 -5.168,2.176 -1.904,2.04 -2.448,7.208 l -0.272,1.496 q -0.272,5.848 -2.856,8.568 -2.584,2.72 -6.392,2.72 -3.536,0 -5.848,-2.176 -2.312,-2.176 -2.312,-5.848 0,-5.576 3.808,-9.384 3.944,-3.808 10.336,-5.712 6.392,-1.904 13.872,-1.904 12.104,0 18.632,5.984 6.664,5.848 6.664,19.176 v 30.055998 q 0,6.12 5.712,6.12 h 2.992 l 1.224,1.088 q -2.584,3.264 -5.712,5.032 -2.992,1.768 -8.568,1.768 -5.984,0 -9.52,-2.72 -3.4,-2.856 -4.488,-7.48 -4.08,4.352 -8.432,7.48 -4.216,2.992 -11.016,2.992 z m 8.296,-8.296 q 2.72,0 5.032,-1.224 2.448,-1.36 5.712,-4.08 V 85.360782 q -1.36,0.272 -2.72,0.544 -1.36,0.272 -3.128,0.544 -6.256,1.632 -10.064,5.576 -3.672,3.808 -3.672,10.335998 0,5.576 2.584,8.432 2.584,2.72 6.256,2.72 z"
       id="path311" /><path
       d="m 372.776,122.21678 q -6.664,0 -10.336,-2.584 -3.536,-2.584 -3.536,-6.936 0,-3.808 2.584,-5.848 2.72,-2.04 6.256,-2.04 3.536,0 6.256,1.632 2.72,1.496 5.032,5.304 l 2.448,4.216 q 0.68,0.952 1.632,0.952 1.088,0 1.496,-1.224 0.816,-2.72 1.088,-7.888 0.408,-5.304 0.408,-12.783998 0,-8.568 -0.408,-22.032 -0.408,-13.464 -0.816,-33.184 0,-5.848 -4.352,-7.344 l -3.128,-1.088 v -1.36 h 35.632 v 1.36 l -2.992,1.088 q -2.448,0.952 -3.4,2.584 -0.816,1.496 -0.816,4.352 v 26.928 q 0,13.328 -1.224,22.032 -1.224,8.704 -3.944,15.095998 -3.4,9.112 -11.152,14.008 -7.616,4.76 -16.728,4.76 z"
       id="path313" /><path
       d="m 449.61613,121.80878 q -10.336,0 -17.952,-4.216 -7.616,-4.352 -11.832,-12.24 -4.08,-7.887998 -4.08,-18.495998 0,-10.608 4.352,-18.36 4.488,-7.752 12.104,-11.968 7.752,-4.216 17.408,-4.216 9.656,0 17.272,4.216 7.616,4.08 11.968,11.832 4.488,7.752 4.488,18.496 0,10.744 -4.216,18.631998 -4.08,7.752 -11.696,12.104 -7.48,4.216 -17.816,4.216 z m 0,-2.72 q 4.76,0 7.616,-2.72 2.856,-2.72 4.08,-9.656 1.36,-6.935998 1.36,-19.583998 0,-12.784 -1.36,-19.72 -1.224,-6.936 -4.08,-9.656 -2.856,-2.72 -7.616,-2.72 -4.76,0 -7.752,2.72 -2.856,2.72 -4.216,9.656 -1.224,6.936 -1.224,19.72 0,12.648 1.224,19.583998 1.36,6.936 4.216,9.656 2.992,2.72 7.752,2.72 z"
       id="path315" /><path
       d="m 513.40018,121.80878 q -5.304,0 -9.792,-2.04 -4.352,-2.04 -6.936,-6.528 -2.448,-4.624 -2.312,-12.104 l 0.408,-34.951998 q 0,-3.128 -1.088,-4.488 -1.088,-1.36 -3.4,-1.904 l -1.632,-0.544 v -1.36 l 24.344,-4.76 1.36,1.36 -0.68,19.312 v 32.775998 q 0,4.352 2.448,6.392 2.584,2.04 6.392,2.04 3.808,0 6.8,-1.088 2.992,-1.088 5.984,-3.264 l 0.544,-44.335998 q 0,-3.128 -0.952,-4.352 -0.952,-1.36 -3.536,-1.904 l -1.36,-0.408 v -1.36 l 23.8,-5.168 1.36,1.36 -0.408,19.312 v 36.855998 q 0,2.992 0.816,4.624 0.816,1.632 3.536,2.72 l 1.36,0.408 v 1.36 l -23.8,1.36 -1.224,-8.024 q -4.488,3.672 -9.792,6.256 -5.168,2.448 -12.24,2.448 z"
       id="path317" /><path
       d="m 565.89609,119.76878 v -1.36 l 2.04,-0.544 q 2.72,-0.816 3.672,-2.448 1.088,-1.632 1.088,-4.216 V 68.632782 q 0,-2.992 -1.088,-4.352 -0.952,-1.496 -3.672,-2.04 l -2.04,-0.544 v -1.36 l 23.392,-7.888 1.36,1.36 1.224,11.696 v 1.088 q 1.904,-3.808 4.896,-6.936 3.128,-3.264 6.8,-5.304 3.808,-2.04 7.48,-2.04 5.168,0 7.888,2.856 2.72,2.856 2.72,7.208 0,4.624 -2.72,7.208 -2.584,2.448 -6.256,2.448 -5.712,0 -10.064,-5.712 l -0.272,-0.272 q -1.36,-1.904 -3.128,-2.04 -1.768,-0.272 -3.264,1.632 -1.36,1.224 -2.312,2.992 -0.816,1.632 -1.632,3.808 v 37.943998 q 0,5.44 4.76,6.8 l 4.352,1.224 v 1.36 z"
       id="path319" /><path
       d="m 625.8721,119.76878 v -1.36 l 1.904,-0.544 q 4.76,-1.36 4.76,-6.664 V 68.632782 q 0,-2.992 -0.952,-4.352 -0.952,-1.496 -3.672,-2.04 l -2.04,-0.544 v -1.36 l 23.256,-7.888 1.36,1.36 1.088,8.16 q 4.76,-4.216 10.744,-6.936 5.984,-2.72 11.832,-2.72 8.976,0 13.736,4.896 4.896,4.896 4.896,14.96 v 39.167998 q 0,5.304 5.168,6.664 l 1.224,0.408 v 1.36 h -32.096 v -1.36 l 1.768,-0.544 q 4.76,-1.496 4.76,-6.664 V 67.816782 q 0,-8.704 -8.704,-8.704 -5.984,0 -13.056,5.984 v 46.239998 q 0,5.304 4.76,6.664 l 1.224,0.408 v 1.36 z"
       id="path321" /><path
       d="m 723.51991,121.80878 q -7.888,0 -13.328,-4.488 -5.304,-4.488 -5.304,-12.92 0,-6.391998 6.528,-11.695998 6.528,-5.44 20.536,-8.16 2.176,-0.408 4.896,-0.816 2.72,-0.544 5.712,-1.088 v -10.744 q 0,-9.248 -2.312,-12.92 -2.176,-3.808 -6.936,-3.808 -3.264,0 -5.168,2.176 -1.904,2.04 -2.448,7.208 l -0.272,1.496 q -0.272,5.848 -2.856,8.568 -2.584,2.72 -6.392,2.72 -3.536,0 -5.848,-2.176 -2.312,-2.176 -2.312,-5.848 0,-5.576 3.808,-9.384 3.944,-3.808 10.336,-5.712 6.392,-1.904 13.872,-1.904 12.104,0 18.632,5.984 6.664,5.848 6.664,19.176 v 30.055998 q 0,6.12 5.712,6.12 h 2.992 l 1.224,1.088 q -2.584,3.264 -5.712,5.032 -2.992,1.768 -8.568,1.768 -5.984,0 -9.52,-2.72 -3.4,-2.856 -4.488,-7.48 -4.08,4.352 -8.432,7.48 -4.216,2.992 -11.016,2.992 z m 8.296,-8.296 q 2.72,0 5.032,-1.224 2.448,-1.36 5.712,-4.08 V 85.360782 q -1.36,0.272 -2.72,0.544 -1.36,0.272 -3.128,0.544 -6.256,1.632 -10.064,5.576 -3.672,3.808 -3.672,10.335998 0,5.576 2.584,8.432 2.584,2.72 6.256,2.72 z"
       id="path323" /><path
       d="m 774.51985,119.76878 v -1.36 l 1.632,-0.544 q 4.896,-1.632 4.896,-6.8 V 38.304782 q 0,-2.72 -1.088,-4.08 -1.088,-1.496 -3.808,-2.176 l -1.768,-0.408 v -1.36 l 24.888,-5.848 1.632,1.224 -0.544,19.04 v 46.512 q 0,5.032 0,10.063998 0.136,4.896 0.136,9.792 0,2.72 1.088,4.488 1.088,1.632 3.672,2.448 l 1.768,0.408 v 1.36 z"
       id="path325" /></g><defs
     id="defs81"><rect
       x="0"
       y="0"
       width="825.61981"
       height="156"
       id="rect357" /><rect
       x="162.80992"
       y="-127.27273"
       width="934.71075"
       height="210.7924"
       id="rect449" /></defs><sodipodi:namedview
     id="namedview79"
     pagecolor="#505050"
     bordercolor="#eeeeee"
     borderopacity="1"
     inkscape:showpageshadow="0"
     inkscape:pageopacity="0"
     inkscape:pagecheckerboard="0"
     inkscape:deskcolor="#505050"
     showgrid="false"
     inkscape:zoom="1.21"
     inkscape:cx="355.78512"
     inkscape:cy="192.56198"
     inkscape:window-width="1920"
     inkscape:window-height="1001"
     inkscape:window-x="-7"
     inkscape:window-y="-7"
     inkscape:window-maximized="1"
     inkscape:current-layer="svg77" /><g
     fill="#729343"
     data-fill-palette-color="accent"
     id="g53"
     style="display:inline"
     transform="matrix(0.36653326,0,0,0.36653326,726.86735,-15.558237)"
     inkscape:label="Logo"><g
       fill="#729343"
       data-fill-palette-color="accent"
       id="g27"
       inkscape:label="Lines"><path
         d="m 255.992,389.554 c -2.088,0 -4.193,-0.651 -5.992,-2.001 l -80,-60 c -4.418,-3.313 -5.313,-9.582 -2,-14 3.313,-4.419 9.582,-5.314 14,-2 l 80,60 c 4.418,3.313 5.313,9.582 2,14 -1.965,2.619 -4.968,4.001 -8.008,4.001 z"
         fill="#729343"
         data-fill-palette-color="accent"
         id="path25" /><path
         d="m 315.991,469.554 c -2.012,0 -4.042,-0.605 -5.804,-1.863 l -140,-100 c -4.494,-3.21 -5.535,-9.456 -2.325,-13.95 3.21,-4.495 9.456,-5.533 13.95,-2.325 l 140,100 c 4.494,3.21 5.535,9.456 2.325,13.95 -1.951,2.732 -5.026,4.188 -8.146,4.188 z"
         fill="#729343"
         data-fill-palette-color="accent"
         id="path21"
         style="display:inline" /></g><g
       fill="#729343"
       data-fill-palette-color="accent"
       id="g31"
       inkscape:label="Head"><path
         d="M 316,469.553 H 136 c -5.523,0 -10,-4.478 -10,-10 V 335.148 c 0,-5.522 4.477,-10 10,-10 5.523,0 10,4.478 10,10 v 114.404 h 160 v -100 c 0,-5.522 4.478,-10 10,-10 h 50 v -15.596 c 0,-5.522 4.478,-10 10,-10 5.522,0 10,4.478 10,10 v 25.596 c 0,5.522 -4.478,10 -10,10 h -50 v 100 c 0,5.523 -4.478,10.001 -10,10.001 z M 136,295.148 c -5.523,0 -10,-4.478 -10,-10 v -98.662 c 0,-3.937 2.309,-7.506 5.899,-9.121 3.59,-1.612 7.793,-0.971 10.738,1.641 5.724,5.079 12.195,9.33 19.233,12.634 8.914,4.186 18.607,6.819 28.817,7.831 10.21,-1.012 19.903,-3.645 28.818,-7.831 12.52,-5.878 22.903,-14.458 30.861,-25.501 7.779,-10.794 12.597,-23.058 14.32,-36.451 0.457,-3.551 0.688,-7.192 0.688,-10.825 0,-4.043 -0.284,-8.116 -0.849,-12.182 -7.508,1.394 -14.691,3.711 -21.444,6.923 -5.541,2.636 -10.77,5.894 -15.54,9.681 -2.732,2.169 -6.396,2.757 -9.67,1.553 -3.273,-1.204 -5.683,-4.027 -6.358,-7.449 -1.55,-7.849 -4.295,-15.456 -8.161,-22.609 -3.057,-5.655 -6.831,-11.044 -11.215,-16.017 -1.973,-2.237 -2.844,-5.238 -2.375,-8.184 0.468,-2.946 2.227,-5.528 4.796,-7.043 C 217.954,49.74 244.732,42.447 272,42.447 c 37.925,0 73.761,13.897 100.906,39.13 27.789,25.832 43.094,60.627 43.094,97.976 v 80 c 0,5.522 -4.478,10 -10,10 h -20 v 4.404 c 0,5.522 -4.478,10 -10,10 -5.522,0 -10,-4.478 -10,-10 v -14.404 c 0,-5.523 4.478,-10 10,-10 h 20 v -70 C 396,114.981 340.374,62.448 272,62.448 c -19.844,0 -39.385,4.442 -57.146,12.923 2.226,3.205 4.263,6.512 6.095,9.901 2.463,4.558 4.563,9.268 6.286,14.094 2.364,-1.37 4.786,-2.645 7.257,-3.82 11.55,-5.495 24.076,-8.857 37.227,-9.996 4.931,-0.421 9.432,2.818 10.586,7.63 2.038,8.493 3.071,17.134 3.071,25.685 0,4.483 -0.287,8.984 -0.853,13.377 -2.151,16.729 -8.185,32.068 -17.931,45.591 -9.969,13.834 -22.952,24.571 -38.586,31.911 -10.854,5.096 -22.597,8.319 -34.919,9.586 -0.775,0.167 -1.582,0.244 -2.399,0.218 -0.823,0.03 -1.627,-0.051 -2.401,-0.218 -12.323,-1.268 -24.063,-4.49 -34.917,-9.586 -2.515,-1.181 -4.974,-2.46 -7.37,-3.833 v 79.237 c 0,5.523 -4.477,10 -10,10 z"
         fill="#729343"
         data-fill-palette-color="accent"
         id="path29"
         style="display:inline" /></g><g
       fill="#729343"
       data-fill-palette-color="accent"
       id="g51"
       inkscape:label="Leaf"
       style="display:inline"><path
         d="m 189.66,212.996 c -2.333,0 -4.666,-0.813 -6.544,-2.438 -0.198,-0.171 -0.392,-0.346 -0.584,-0.522 l -0.186,-0.168 c -9.365,-8.231 -17.108,-17.734 -23.009,-28.239 -8.423,-14.992 -12.875,-31.889 -12.875,-48.864 0,-0.004 0,-0.097 0,-0.101 0.008,-6.88 0.746,-13.796 2.192,-20.557 0.539,-2.521 1.207,-5.115 1.983,-7.709 2.04,-6.818 4.822,-13.451 8.268,-19.709 6.167,-11.2 14.372,-21.243 24.389,-29.848 3.754,-3.225 9.302,-3.219 13.049,0.013 3.817,3.293 7.449,6.887 10.797,10.683 5.386,6.108 10.031,12.747 13.809,19.735 4.821,8.922 8.249,18.424 10.188,28.246 1.242,6.293 1.872,12.728 1.872,19.125 v 0.103 c -0.018,17.063 -4.29,33.36 -12.697,48.447 -6.143,11.02 -14.262,20.907 -24.134,29.388 -1.875,1.61 -4.197,2.415 -6.518,2.415 z M 189.789,76.2 c -5.282,5.515 -9.759,11.588 -13.364,18.136 -2.763,5.018 -4.993,10.333 -6.627,15.796 -0.625,2.087 -1.158,4.157 -1.586,6.157 -1.154,5.396 -1.743,10.914 -1.75,16.398 0,13.821 3.469,26.965 10.312,39.144 3.508,6.246 7.834,12.069 12.91,17.386 5.178,-5.408 9.586,-11.356 13.156,-17.762 6.732,-12.081 10.153,-25.109 10.167,-38.721 v -0.092 c 0,-5.101 -0.502,-10.232 -1.493,-15.252 -1.55,-7.85 -4.295,-15.456 -8.161,-22.609 -3.057,-5.655 -6.831,-11.044 -11.215,-16.017 -0.765,-0.868 -1.549,-1.723 -2.349,-2.564 z"
         fill="#729343"
         data-fill-palette-color="accent"
         id="path49" /><path
         d="m 190.384,219.553 c -4.675,0 -8.761,-3.265 -9.763,-7.872 -0.574,-2.414 -1.075,-4.93 -1.531,-7.686 -0.691,-4.172 1.317,-8.327 5.015,-10.378 0.634,-0.351 1.294,-0.628 1.968,-0.831 6.763,-6.322 12.394,-13.482 16.768,-21.33 6.732,-12.081 10.153,-25.109 10.167,-38.721 v -0.092 c 0,-5.103 -0.502,-10.234 -1.493,-15.253 -0.725,-3.672 0.662,-7.441 3.593,-9.769 5.955,-4.727 12.476,-8.791 19.383,-12.077 11.55,-5.495 24.076,-8.857 37.227,-9.996 4.931,-0.421 9.432,2.818 10.586,7.63 2.038,8.492 3.071,17.134 3.071,25.685 0,4.483 -0.287,8.984 -0.853,13.377 -2.151,16.729 -8.185,32.068 -17.931,45.591 -9.969,13.834 -22.952,24.571 -38.586,31.911 -11.182,5.25 -23.305,8.512 -36.035,9.696 l -0.344,0.037 0.103,-0.01 c -0.194,0.022 -0.373,0.041 -0.552,0.055 -0.266,0.023 -0.531,0.033 -0.793,0.033 z m 41.792,-99.68 c 0.553,4.238 0.832,8.512 0.832,12.771 10e-4,0.052 0,0.061 0,0.113 -0.018,17.053 -4.29,33.349 -12.697,48.436 -2.703,4.849 -5.788,9.478 -9.237,13.865 2.879,-0.991 5.693,-2.131 8.433,-3.417 12.52,-5.878 22.903,-14.458 30.861,-25.501 7.779,-10.794 12.597,-23.058 14.32,-36.451 0.457,-3.551 0.688,-7.192 0.688,-10.825 0,-4.043 -0.284,-8.116 -0.849,-12.182 -7.508,1.394 -14.691,3.711 -21.444,6.923 -3.798,1.808 -7.45,3.907 -10.907,6.268 z"
         fill="#729343"
         data-fill-palette-color="accent"
         id="path45"
         style="display:inline" /><path
         d="m 190.379,219.487 c -0.307,0 -0.614,-0.014 -0.922,-0.042 -12.75,-1.18 -24.891,-4.443 -36.087,-9.701 -8.772,-4.119 -16.85,-9.427 -24.007,-15.778 -5.436,-4.823 -10.341,-10.251 -14.58,-16.133 C 105.037,164.31 99.005,148.971 96.852,132.241 96.287,127.843 96,123.341 96,118.861 c 0,-8.55 1.033,-17.19 3.07,-25.681 1.155,-4.812 5.655,-8.049 10.586,-7.63 13.152,1.138 25.678,4.501 37.227,9.995 5.25,2.498 10.393,5.535 15.288,9.028 l 0.559,0.396 c 0.583,0.411 1.166,0.824 1.735,1.254 3.098,2.343 4.558,6.269 3.746,10.066 -1.154,5.396 -1.743,10.914 -1.75,16.398 0,13.821 3.469,26.965 10.312,39.144 4.792,8.532 11.112,16.276 18.783,23.02 1.733,1.523 2.887,3.6 3.264,5.877 0.387,2.336 0.807,4.44 1.283,6.432 0.75,3.136 -0.058,6.44 -2.169,8.876 -1.908,2.203 -4.671,3.451 -7.555,3.451 z M 116.848,106.682 c -0.563,4.064 -0.848,8.137 -0.848,12.179 0,3.63 0.232,7.274 0.689,10.829 1.723,13.393 6.541,25.656 14.319,36.45 3.38,4.69 7.292,9.019 11.629,12.867 5.724,5.079 12.194,9.33 19.233,12.634 1.853,0.87 3.739,1.673 5.657,2.408 -3.031,-3.959 -5.766,-8.105 -8.19,-12.421 -8.423,-14.992 -12.875,-31.889 -12.875,-48.864 0,-0.004 0,-0.097 0,-0.101 0.006,-4.641 0.343,-9.297 1.006,-13.912 -2.991,-1.941 -6.065,-3.666 -9.176,-5.146 -6.752,-3.211 -13.936,-5.529 -21.444,-6.923 z"
         fill="#729343"
         data-fill-palette-color="accent"
         id="path41"
         style="display:inline" /><path
         d="m 158.434,124.198 c -2.147,0 -4.271,-0.691 -6.034,-2.025 -0.389,-0.294 -0.79,-0.574 -1.188,-0.855 l -0.655,-0.464 c -4.398,-3.137 -5.51,-9.199 -2.511,-13.692 1.294,-1.938 2.694,-3.917 4.163,-5.882 2.903,-3.884 8.174,-5.125 12.507,-2.945 4.332,2.181 6.474,7.155 5.083,11.801 -0.624,2.083 -1.157,4.154 -1.585,6.154 -0.715,3.343 -3.087,6.088 -6.291,7.281 -1.135,0.421 -2.316,0.627 -3.489,0.627 z"
         fill="#729343"
         data-fill-palette-color="accent"
         id="path33"
         style="display:inline" /><path
         d="m 190.991,219.553 c -0.262,0 -0.525,-0.01 -0.791,-0.031 -0.173,-0.014 -0.344,-0.031 -0.515,-0.051 -5.092,-0.512 -8.983,-4.792 -8.998,-9.922 -0.014,-5.153 3.89,-9.47 9.012,-9.979 l 0.357,-0.039 c 3.254,-0.311 6.441,0.99 8.556,3.474 2.017,2.37 2.81,5.535 2.166,8.562 -0.96,4.666 -5.074,7.986 -9.787,7.986 z"
         fill="#729343"
         data-fill-palette-color="accent"
         id="path37"
         style="display:inline" /></g></g></svg>
