<?xml version="1.0" encoding="UTF-8" standalone="no"?>
<svg
   version="1.1"
   xmlnsXlink="http://www.w3.org/1999/xlink"
   xmlnsSvgjs="http://svgjs.dev/svgjs"
   width="1000"
   height="156"
   viewBox="0 0 1000 156"
   id="svg77"
   sodipodi:docname="new logo.svg"
   xml:space="preserve"
   inkscape:version="1.2.1 (9c6d41e410, 2022-07-14)"
   xmlns:inkscape="http://www.inkscape.org/namespaces/inkscape"
   xmlns:sodipodi="http://sodipodi.sourceforge.net/DTD/sodipodi-0.dtd"
   xmlns="http://www.w3.org/2000/svg"
   xmlns:svg="http://www.w3.org/2000/svg"><defs
     id="defs81" /><sodipodi:namedview
     id="namedview79"
     pagecolor="#505050"
     bordercolor="#eeeeee"
     borderopacity="1"
     inkscape:showpageshadow="0"
     inkscape:pageopacity="0"
     inkscape:pagecheckerboard="0"
     inkscape:deskcolor="#505050"
     showgrid="false"
     inkscape:zoom="4.84"
     inkscape:cx="883.78099"
     inkscape:cy="82.85124"
     inkscape:window-width="1920"
     inkscape:window-height="1001"
     inkscape:window-x="-7"
     inkscape:window-y="-7"
     inkscape:window-maximized="1"
     inkscape:current-layer="g53" /><g
     fill="#729343"
     data-fill-palette-color="accent"
     id="g53"
     style="display:inline"
     transform="matrix(0.36653326,0,0,0.36653326,844.86735,-15.790047)"
     inkscape:label="Logo"><g
       fill="#729343"
       data-fill-palette-color="accent"
       id="g27"
       inkscape:label="Lines"><path
         d="m 255.992,389.554 c -2.088,0 -4.193,-0.651 -5.992,-2.001 l -80,-60 c -4.418,-3.313 -5.313,-9.582 -2,-14 3.313,-4.419 9.582,-5.314 14,-2 l 80,60 c 4.418,3.313 5.313,9.582 2,14 -1.965,2.619 -4.968,4.001 -8.008,4.001 z"
         fill="#729343"
         data-fill-palette-color="accent"
         id="path25" /><path
         d="m 315.991,469.554 c -2.012,0 -4.042,-0.605 -5.804,-1.863 l -140,-100 c -4.494,-3.21 -5.535,-9.456 -2.325,-13.95 3.21,-4.495 9.456,-5.533 13.95,-2.325 l 140,100 c 4.494,3.21 5.535,9.456 2.325,13.95 -1.951,2.732 -5.026,4.188 -8.146,4.188 z"
         fill="#729343"
         data-fill-palette-color="accent"
         id="path21"
         style="display:inline" /></g><g
       fill="#729343"
       data-fill-palette-color="accent"
       id="g31"
       inkscape:label="Head"><path
         d="M 316,469.553 H 136 c -5.523,0 -10,-4.478 -10,-10 V 335.148 c 0,-5.522 4.477,-10 10,-10 5.523,0 10,4.478 10,10 v 114.404 h 160 v -100 c 0,-5.522 4.478,-10 10,-10 h 50 v -15.596 c 0,-5.522 4.478,-10 10,-10 5.522,0 10,4.478 10,10 v 25.596 c 0,5.522 -4.478,10 -10,10 h -50 v 100 c 0,5.523 -4.478,10.001 -10,10.001 z M 136,295.148 c -5.523,0 -10,-4.478 -10,-10 v -98.662 c 0,-3.937 2.309,-7.506 5.899,-9.121 3.59,-1.612 7.793,-0.971 10.738,1.641 5.724,5.079 12.195,9.33 19.233,12.634 8.914,4.186 18.607,6.819 28.817,7.831 10.21,-1.012 19.903,-3.645 28.818,-7.831 12.52,-5.878 22.903,-14.458 30.861,-25.501 7.779,-10.794 12.597,-23.058 14.32,-36.451 0.457,-3.551 0.688,-7.192 0.688,-10.825 0,-4.043 -0.284,-8.116 -0.849,-12.182 -7.508,1.394 -14.691,3.711 -21.444,6.923 -5.541,2.636 -10.77,5.894 -15.54,9.681 -2.732,2.169 -6.396,2.757 -9.67,1.553 -3.273,-1.204 -5.683,-4.027 -6.358,-7.449 -1.55,-7.849 -4.295,-15.456 -8.161,-22.609 -3.057,-5.655 -6.831,-11.044 -11.215,-16.017 -1.973,-2.237 -2.844,-5.238 -2.375,-8.184 0.468,-2.946 2.227,-5.528 4.796,-7.043 C 217.954,49.74 244.732,42.447 272,42.447 c 37.925,0 73.761,13.897 100.906,39.13 27.789,25.832 43.094,60.627 43.094,97.976 v 80 c 0,5.522 -4.478,10 -10,10 h -20 v 4.404 c 0,5.522 -4.478,10 -10,10 -5.522,0 -10,-4.478 -10,-10 v -14.404 c 0,-5.523 4.478,-10 10,-10 h 20 v -70 C 396,114.981 340.374,62.448 272,62.448 c -19.844,0 -39.385,4.442 -57.146,12.923 2.226,3.205 4.263,6.512 6.095,9.901 2.463,4.558 4.563,9.268 6.286,14.094 2.364,-1.37 4.786,-2.645 7.257,-3.82 11.55,-5.495 24.076,-8.857 37.227,-9.996 4.931,-0.421 9.432,2.818 10.586,7.63 2.038,8.493 3.071,17.134 3.071,25.685 0,4.483 -0.287,8.984 -0.853,13.377 -2.151,16.729 -8.185,32.068 -17.931,45.591 -9.969,13.834 -22.952,24.571 -38.586,31.911 -10.854,5.096 -22.597,8.319 -34.919,9.586 -0.775,0.167 -1.582,0.244 -2.399,0.218 -0.823,0.03 -1.627,-0.051 -2.401,-0.218 -12.323,-1.268 -24.063,-4.49 -34.917,-9.586 -2.515,-1.181 -4.974,-2.46 -7.37,-3.833 v 79.237 c 0,5.523 -4.477,10 -10,10 z"
         fill="#729343"
         data-fill-palette-color="accent"
         id="path29"
         style="display:inline" /></g><g
       fill="#729343"
       data-fill-palette-color="accent"
       id="g51"
       inkscape:label="Leaf"
       style="display:inline"><path
         d="m 189.66,212.996 c -2.333,0 -4.666,-0.813 -6.544,-2.438 -0.198,-0.171 -0.392,-0.346 -0.584,-0.522 l -0.186,-0.168 c -9.365,-8.231 -17.108,-17.734 -23.009,-28.239 -8.423,-14.992 -12.875,-31.889 -12.875,-48.864 0,-0.004 0,-0.097 0,-0.101 0.008,-6.88 0.746,-13.796 2.192,-20.557 0.539,-2.521 1.207,-5.115 1.983,-7.709 2.04,-6.818 4.822,-13.451 8.268,-19.709 6.167,-11.2 14.372,-21.243 24.389,-29.848 3.754,-3.225 9.302,-3.219 13.049,0.013 3.817,3.293 7.449,6.887 10.797,10.683 5.386,6.108 10.031,12.747 13.809,19.735 4.821,8.922 8.249,18.424 10.188,28.246 1.242,6.293 1.872,12.728 1.872,19.125 v 0.103 c -0.018,17.063 -4.29,33.36 -12.697,48.447 -6.143,11.02 -14.262,20.907 -24.134,29.388 -1.875,1.61 -4.197,2.415 -6.518,2.415 z M 189.789,76.2 c -5.282,5.515 -9.759,11.588 -13.364,18.136 -2.763,5.018 -4.993,10.333 -6.627,15.796 -0.625,2.087 -1.158,4.157 -1.586,6.157 -1.154,5.396 -1.743,10.914 -1.75,16.398 0,13.821 3.469,26.965 10.312,39.144 3.508,6.246 7.834,12.069 12.91,17.386 5.178,-5.408 9.586,-11.356 13.156,-17.762 6.732,-12.081 10.153,-25.109 10.167,-38.721 v -0.092 c 0,-5.101 -0.502,-10.232 -1.493,-15.252 -1.55,-7.85 -4.295,-15.456 -8.161,-22.609 -3.057,-5.655 -6.831,-11.044 -11.215,-16.017 -0.765,-0.868 -1.549,-1.723 -2.349,-2.564 z"
         fill="#729343"
         data-fill-palette-color="accent"
         id="path49" /><path
         d="m 190.384,219.553 c -4.675,0 -8.761,-3.265 -9.763,-7.872 -0.574,-2.414 -1.075,-4.93 -1.531,-7.686 -0.691,-4.172 1.317,-8.327 5.015,-10.378 0.634,-0.351 1.294,-0.628 1.968,-0.831 6.763,-6.322 12.394,-13.482 16.768,-21.33 6.732,-12.081 10.153,-25.109 10.167,-38.721 v -0.092 c 0,-5.103 -0.502,-10.234 -1.493,-15.253 -0.725,-3.672 0.662,-7.441 3.593,-9.769 5.955,-4.727 12.476,-8.791 19.383,-12.077 11.55,-5.495 24.076,-8.857 37.227,-9.996 4.931,-0.421 9.432,2.818 10.586,7.63 2.038,8.492 3.071,17.134 3.071,25.685 0,4.483 -0.287,8.984 -0.853,13.377 -2.151,16.729 -8.185,32.068 -17.931,45.591 -9.969,13.834 -22.952,24.571 -38.586,31.911 -11.182,5.25 -23.305,8.512 -36.035,9.696 l -0.344,0.037 0.103,-0.01 c -0.194,0.022 -0.373,0.041 -0.552,0.055 -0.266,0.023 -0.531,0.033 -0.793,0.033 z m 41.792,-99.68 c 0.553,4.238 0.832,8.512 0.832,12.771 10e-4,0.052 0,0.061 0,0.113 -0.018,17.053 -4.29,33.349 -12.697,48.436 -2.703,4.849 -5.788,9.478 -9.237,13.865 2.879,-0.991 5.693,-2.131 8.433,-3.417 12.52,-5.878 22.903,-14.458 30.861,-25.501 7.779,-10.794 12.597,-23.058 14.32,-36.451 0.457,-3.551 0.688,-7.192 0.688,-10.825 0,-4.043 -0.284,-8.116 -0.849,-12.182 -7.508,1.394 -14.691,3.711 -21.444,6.923 -3.798,1.808 -7.45,3.907 -10.907,6.268 z"
         fill="#729343"
         data-fill-palette-color="accent"
         id="path45"
         style="display:inline" /><path
         d="m 190.379,219.487 c -0.307,0 -0.614,-0.014 -0.922,-0.042 -12.75,-1.18 -24.891,-4.443 -36.087,-9.701 -8.772,-4.119 -16.85,-9.427 -24.007,-15.778 -5.436,-4.823 -10.341,-10.251 -14.58,-16.133 C 105.037,164.31 99.005,148.971 96.852,132.241 96.287,127.843 96,123.341 96,118.861 c 0,-8.55 1.033,-17.19 3.07,-25.681 1.155,-4.812 5.655,-8.049 10.586,-7.63 13.152,1.138 25.678,4.501 37.227,9.995 5.25,2.498 10.393,5.535 15.288,9.028 l 0.559,0.396 c 0.583,0.411 1.166,0.824 1.735,1.254 3.098,2.343 4.558,6.269 3.746,10.066 -1.154,5.396 -1.743,10.914 -1.75,16.398 0,13.821 3.469,26.965 10.312,39.144 4.792,8.532 11.112,16.276 18.783,23.02 1.733,1.523 2.887,3.6 3.264,5.877 0.387,2.336 0.807,4.44 1.283,6.432 0.75,3.136 -0.058,6.44 -2.169,8.876 -1.908,2.203 -4.671,3.451 -7.555,3.451 z M 116.848,106.682 c -0.563,4.064 -0.848,8.137 -0.848,12.179 0,3.63 0.232,7.274 0.689,10.829 1.723,13.393 6.541,25.656 14.319,36.45 3.38,4.69 7.292,9.019 11.629,12.867 5.724,5.079 12.194,9.33 19.233,12.634 1.853,0.87 3.739,1.673 5.657,2.408 -3.031,-3.959 -5.766,-8.105 -8.19,-12.421 -8.423,-14.992 -12.875,-31.889 -12.875,-48.864 0,-0.004 0,-0.097 0,-0.101 0.006,-4.641 0.343,-9.297 1.006,-13.912 -2.991,-1.941 -6.065,-3.666 -9.176,-5.146 -6.752,-3.211 -13.936,-5.529 -21.444,-6.923 z"
         fill="#729343"
         data-fill-palette-color="accent"
         id="path41"
         style="display:inline" /><path
         d="m 158.434,124.198 c -2.147,0 -4.271,-0.691 -6.034,-2.025 -0.389,-0.294 -0.79,-0.574 -1.188,-0.855 l -0.655,-0.464 c -4.398,-3.137 -5.51,-9.199 -2.511,-13.692 1.294,-1.938 2.694,-3.917 4.163,-5.882 2.903,-3.884 8.174,-5.125 12.507,-2.945 4.332,2.181 6.474,7.155 5.083,11.801 -0.624,2.083 -1.157,4.154 -1.585,6.154 -0.715,3.343 -3.087,6.088 -6.291,7.281 -1.135,0.421 -2.316,0.627 -3.489,0.627 z"
         fill="#729343"
         data-fill-palette-color="accent"
         id="path33"
         style="display:inline" /><path
         d="m 190.991,219.553 c -0.262,0 -0.525,-0.01 -0.791,-0.031 -0.173,-0.014 -0.344,-0.031 -0.515,-0.051 -5.092,-0.512 -8.983,-4.792 -8.998,-9.922 -0.014,-5.153 3.89,-9.47 9.012,-9.979 l 0.357,-0.039 c 3.254,-0.311 6.441,0.99 8.556,3.474 2.017,2.37 2.81,5.535 2.166,8.562 -0.96,4.666 -5.074,7.986 -9.787,7.986 z"
         fill="#729343"
         data-fill-palette-color="accent"
         id="path37"
         style="display:inline" /></g></g><path
     d="m 28.61,-35.55 v 2.57 H 16.43 V 0 h -3 V -32.98 H 1.27 v -2.57 z m 7.96,-1.95 v 15.55 q 1.44,-2.37 3.69,-3.66 2.24,-1.29 4.9,-1.29 v 0 q 4.25,0 6.33,2.39 2.07,2.39 2.1,7.18 v 0 V 0 h -2.91 v -17.36 q -0.02,-3.54 -1.5,-5.27 -1.48,-1.74 -4.72,-1.74 v 0 q -2.71,0 -4.8,1.7 -2.09,1.7 -3.09,4.58 v 0 V 0 H 33.66 V -37.5 Z M 71.33,0.49 v 0 q -3.37,0 -6.09,-1.66 -2.72,-1.66 -4.23,-4.63 -1.52,-2.96 -1.52,-6.65 v 0 -1.05 q 0,-3.81 1.48,-6.86 1.48,-3.05 4.11,-4.8 2.64,-1.74 5.72,-1.74 v 0 q 4.81,0 7.63,3.28 2.82,3.28 2.82,8.97 v 0 1.64 H 62.4 v 0.56 q 0,4.49 2.57,7.48 2.58,2.99 6.48,2.99 v 0 q 2.35,0 4.14,-0.85 1.8,-0.86 3.26,-2.74 v 0 l 1.83,1.4 q -3.22,4.66 -9.35,4.66 z m -0.53,-24.9 v 0 q -3.3,0 -5.56,2.41 -2.26,2.42 -2.74,6.5 v 0 h 15.84 v -0.32 q -0.12,-3.81 -2.17,-6.2 -2.05,-2.39 -5.37,-2.39 z m 28.41,-2.18 -0.07,2.66 q -0.93,-0.17 -1.98,-0.17 v 0 q -2.73,0 -4.63,1.53 -1.89,1.53 -2.69,4.43 v 0 V 0 h -2.91 v -26.42 h 2.86 l 0.05,4.2 q 2.32,-4.68 7.44,-4.68 v 0 q 1.22,0 1.93,0.31 z M 122.57,0 h -3.12 q -0.44,-1.25 -0.56,-3.69 v 0 q -1.54,2.01 -3.92,3.09 -2.38,1.09 -5.04,1.09 v 0 q -3.81,0 -6.17,-2.13 -2.35,-2.12 -2.35,-5.37 v 0 q 0,-3.85 3.21,-6.1 3.21,-2.25 8.94,-2.25 v 0 h 5.3 v -3 q 0,-2.83 -1.74,-4.45 -1.75,-1.63 -5.09,-1.63 v 0 q -3.06,0 -5.06,1.56 -2,1.57 -2,3.76 v 0 l -2.93,-0.02 q 0,-3.15 2.93,-5.46 2.93,-2.3 7.2,-2.3 v 0 q 4.42,0 6.97,2.21 2.55,2.2 2.63,6.16 v 0 12.5 q 0,3.83 0.8,5.74 v 0 z m -12.3,-2.1 v 0 q 2.93,0 5.24,-1.42 2.3,-1.41 3.35,-3.78 v 0 -5.81 h -5.22 q -4.37,0.05 -6.84,1.6 -2.46,1.55 -2.46,4.26 v 0 q 0,2.22 1.64,3.69 1.65,1.46 4.29,1.46 z m 35.66,-8.3 v -25.15 h 3.03 v 24.98 q 0,5.05 -2.92,8.06 -2.91,3 -7.82,3 v 0 q -5.18,0 -7.96,-2.71 -2.78,-2.71 -2.78,-7.57 v 0 h 3 q 0,3.86 2.03,5.8 2.02,1.94 5.71,1.94 v 0 q 3.39,0 5.53,-2.25 2.14,-2.24 2.18,-6.1 z m 9.52,-2.61 v -0.59 q 0,-3.81 1.48,-6.86 1.48,-3.05 4.18,-4.75 2.69,-1.69 6.11,-1.69 v 0 q 5.27,0 8.55,3.69 3.27,3.7 3.27,9.81 v 0 0.61 q 0,3.83 -1.48,6.89 -1.48,3.07 -4.16,4.73 -2.69,1.66 -6.13,1.66 v 0 q -5.25,0 -8.53,-3.7 -3.29,-3.7 -3.29,-9.8 z m 2.93,-0.32 v 0.54 q 0,4.73 2.46,7.77 2.45,3.04 6.43,3.04 v 0 q 3.96,0 6.41,-3.04 2.45,-3.04 2.45,-8.02 v 0 -0.56 q 0,-3.03 -1.12,-5.54 -1.12,-2.52 -3.15,-3.89 -2.03,-1.38 -4.64,-1.38 v 0 q -3.9,0 -6.37,3.06 -2.47,3.06 -2.47,8.02 z M 202.11,0 202.06,-3.34 q -2.64,3.83 -8.43,3.83 v 0 q -4.22,0 -6.42,-2.46 -2.19,-2.45 -2.24,-7.26 v 0 -17.19 h 2.9 v 16.83 q 0,7.54 6.11,7.54 v 0 q 6.34,0 8.03,-5.25 v 0 -19.12 h 2.93 V 0 Z m 22.7,-26.59 -0.07,2.66 q -0.93,-0.17 -1.98,-0.17 v 0 q -2.74,0 -4.63,1.53 -1.89,1.53 -2.7,4.43 v 0 V 0 h -2.9 v -26.42 h 2.86 l 0.04,4.2 q 2.32,-4.68 7.45,-4.68 v 0 q 1.22,0 1.93,0.31 z m 4.54,0.17 h 2.78 l 0.1,4.52 q 1.49,-2.44 3.71,-3.72 2.22,-1.28 4.91,-1.28 v 0 q 4.24,0 6.32,2.39 2.08,2.39 2.1,7.18 v 0 V 0 h -2.91 v -17.36 q -0.02,-3.54 -1.5,-5.27 -1.47,-1.74 -4.72,-1.74 v 0 q -2.71,0 -4.8,1.7 -2.09,1.7 -3.09,4.58 v 0 V 0 h -2.9 z M 276.61,0 h -3.12 q -0.44,-1.25 -0.57,-3.69 v 0 q -1.53,2.01 -3.91,3.09 -2.38,1.09 -5.05,1.09 v 0 q -3.8,0 -6.16,-2.13 -2.36,-2.12 -2.36,-5.37 v 0 q 0,-3.85 3.21,-6.1 3.21,-2.25 8.95,-2.25 v 0 h 5.3 v -3 q 0,-2.83 -1.75,-4.45 -1.74,-1.63 -5.09,-1.63 v 0 q -3.05,0 -5.05,1.56 -2,1.57 -2,3.76 v 0 l -2.93,-0.02 q 0,-3.15 2.93,-5.46 2.93,-2.3 7.2,-2.3 v 0 q 4.42,0 6.97,2.21 2.55,2.2 2.63,6.16 v 0 12.5 q 0,3.83 0.8,5.74 v 0 z m -12.3,-2.1 v 0 q 2.93,0 5.23,-1.42 2.31,-1.41 3.36,-3.78 v 0 -5.81 h -5.22 q -4.37,0.05 -6.84,1.6 -2.47,1.55 -2.47,4.26 v 0 q 0,2.22 1.65,3.69 1.65,1.46 4.29,1.46 z m 22.55,-35.4 V 0 h -2.93 v -37.5 z"
     opacity="1"
     fill="#729343"
     class="undefined-text-0"
     data-fill-palette-color="primary"
     id="text-0"
     style="display:inline"
     transform="matrix(2.9801353,0,0,2.9801353,-1.9163552,133.37921)"
     inkscape:label="TheraJournal" /></svg>
